<svg xmlns="http://www.w3.org/2000/svg" viewBox="0 0 365 42.2"><path d="M0 40.9V0h16.9c1.8 0 3.4.4 4.9 1.1 1.5.7 2.8 1.7 3.8 2.9 1.1 1.2 1.9 2.6 2.5 4.1.6 1.5.9 3.1.9 4.7 0 1.7-.3 3.3-.8 4.9-.6 1.6-1.4 2.9-2.4 4.1-1 1.2-2.3 2.2-3.7 2.9s-3 1.1-4.8 1.1H4v15.1H0zm4-18.7h13c1.2 0 2.3-.3 3.3-.8s1.8-1.2 2.5-2.1c.7-.9 1.2-1.9 1.6-3 .4-1.1.6-2.3.6-3.5 0-1.3-.2-2.5-.7-3.6-.4-1.1-1-2.1-1.8-3-.7-.8-1.6-1.5-2.6-2s-2.1-.7-3.2-.7H4v18.7zm24.8 19.3L43 7.4h2.7L60 41.5h-3.6L52 30.8H36.7l-4.4 10.7h-3.5zm15.6-30.2l-7 16.8h13.8l-6.8-16.8zM92 36.5c-3.2 3.5-6.8 5.2-10.9 5.2-2.3 0-4.4-.5-6.4-1.5-1.9-1-3.6-2.3-5-3.9s-2.5-3.5-3.3-5.5c-.8-2.1-1.2-4.2-1.2-6.4 0-2.3.4-4.4 1.2-6.5.8-2.1 1.9-3.9 3.3-5.5s3.1-2.8 5-3.8c1.9-.9 4-1.4 6.3-1.4 1.7 0 3.2.2 4.5.6 1.4.4 2.6.9 3.6 1.5 1.1.7 2 1.4 2.8 2.4.8.9 1.5 1.9 2 3l-2.6 1.7c-1.1-2.1-2.6-3.7-4.4-4.7-1.8-1-3.8-1.5-6.1-1.5-1.9 0-3.6.4-5.1 1.2-1.5.8-2.8 1.9-3.9 3.2-1.1 1.3-1.9 2.8-2.5 4.6-.6 1.7-.9 3.5-.9 5.3 0 1.9.3 3.7 1 5.5.7 1.7 1.6 3.2 2.7 4.5 1.2 1.3 2.5 2.3 4.1 3.1 1.6.8 3.2 1.2 5.1 1.2 2 0 3.8-.5 5.6-1.4 1.8-.9 3.5-2.3 5.1-4.3v-5.7h-7.5v-2.6h10.4v16.8H92v-5.1zm35.3 2v3h-22.9V7.4h22.5v3h-19.2v12.3h16.7v2.8h-16.7v13h19.6zm49.4-2.5c-3.8 4.1-8.2 6.2-13.1 6.2-2.8 0-5.3-.6-7.6-1.8-2.3-1.2-4.3-2.8-6-4.7-1.7-2-3-4.2-4-6.7s-1.4-5-1.4-7.6c0-2.7.5-5.3 1.4-7.8.9-2.5 2.2-4.7 3.9-6.6s3.7-3.4 6-4.6c2.3-1.1 4.8-1.7 7.6-1.7 2 0 3.8.2 5.4.7 1.6.4 3.1 1.1 4.4 1.8 1.3.8 2.4 1.7 3.4 2.8 1 1.1 1.8 2.3 2.4 3.6l-3.1 2.1c-1.3-2.5-3.1-4.4-5.2-5.6-2.2-1.2-4.6-1.8-7.3-1.8-2.3 0-4.3.5-6.1 1.4-1.8 1-3.4 2.2-4.7 3.8-1.3 1.6-2.3 3.4-3 5.5-.7 2.1-1 4.2-1 6.4 0 2.3.4 4.5 1.2 6.6.8 2.1 1.9 3.9 3.3 5.4 1.4 1.6 3 2.8 4.9 3.7 1.9.9 3.9 1.4 6.1 1.4 2.3 0 4.6-.5 6.7-1.6 2.1-1.1 4.1-2.8 6.1-5.2v-6.9h-9v-3.1h12.5v20.1H177V36zm42.8-34.7h3.9l5.8 14.5L235 1.3h3.8l-7.1 17.5 7.8 18.5L254.2 1h4.4l-17.3 40.9h-3.6l-8.6-20.2-8.6 20.2H217L199.7 1h4.3l14.9 36.2 7.8-18.5-7.2-17.4zm54.1 40.4c-2.4 0-4.5-.5-6.5-1.5s-3.7-2.3-5.1-3.9c-1.4-1.6-2.5-3.5-3.3-5.5-.8-2.1-1.2-4.2-1.2-6.4 0-2.3.4-4.4 1.2-6.5.8-2.1 1.9-3.9 3.4-5.5 1.4-1.6 3.1-2.9 5.1-3.8 2-.9 4.1-1.4 6.3-1.4 2.4 0 4.5.5 6.5 1.5s3.6 2.3 5 4c1.4 1.6 2.5 3.5 3.2 5.5.8 2.1 1.2 4.2 1.2 6.3 0 2.3-.4 4.4-1.2 6.5-.8 2.1-1.9 3.9-3.4 5.5s-3.1 2.8-5.1 3.8c-1.7 1-3.9 1.4-6.1 1.4zm-12.7-17.3c0 1.9.3 3.6.9 5.4.6 1.7 1.5 3.2 2.6 4.6 1.1 1.3 2.4 2.4 4 3.2 1.5.8 3.2 1.2 5.1 1.2 1.9 0 3.7-.4 5.2-1.2 1.6-.8 2.9-1.9 4-3.3 1.1-1.3 1.9-2.9 2.5-4.6.6-1.7.9-3.4.9-5.2 0-1.9-.3-3.6-.9-5.4-.6-1.7-1.5-3.2-2.6-4.5-1.1-1.3-2.4-2.4-4-3.1-1.5-.8-3.2-1.2-5.1-1.2-1.9 0-3.7.4-5.2 1.2-1.6.8-2.9 1.9-4 3.2-1.1 1.3-1.9 2.9-2.5 4.6-.6 1.7-.9 3.4-.9 5.1zm51.4 17.3c-2.4 0-4.5-.5-6.5-1.5s-3.7-2.3-5.1-3.9c-1.4-1.6-2.5-3.5-3.3-5.5-.8-2.1-1.2-4.2-1.2-6.4 0-2.3.4-4.4 1.2-6.5.8-2.1 1.9-3.9 3.4-5.5 1.4-1.6 3.1-2.9 5.1-3.8 2-.9 4.1-1.4 6.3-1.4 2.4 0 4.5.5 6.5 1.5s3.6 2.3 5 4c1.4 1.6 2.5 3.5 3.2 5.5.8 2.1 1.2 4.2 1.2 6.3 0 2.3-.4 4.4-1.2 6.5-.8 2.1-1.9 3.9-3.4 5.5s-3.1 2.8-5.1 3.8c-1.8 1-3.9 1.4-6.1 1.4zm-12.7-17.3c0 1.9.3 3.6.9 5.4.6 1.7 1.5 3.2 2.6 4.6 1.1 1.3 2.4 2.4 4 3.2 1.5.8 3.2 1.2 5.1 1.2 1.9 0 3.7-.4 5.2-1.2 1.6-.8 2.9-1.9 4-3.3 1.1-1.3 1.9-2.9 2.5-4.6.6-1.7.9-3.4.9-5.2 0-1.9-.3-3.6-.9-5.4-.6-1.7-1.5-3.2-2.6-4.5-1.1-1.3-2.4-2.4-4-3.1-1.5-.8-3.2-1.2-5.1-1.2-1.9 0-3.7.4-5.2 1.2-1.6.8-2.9 1.9-4 3.2-1.1 1.3-1.9 2.9-2.5 4.6-.6 1.7-.9 3.4-.9 5.1zm37.5 17.1V7.4h11.5c2.7 0 5.1.4 7.2 1.3 2 .9 3.8 2.1 5.1 3.6s2.4 3.3 3 5.4 1 4.3 1 6.6c0 2.6-.4 4.9-1.2 7-.8 2.1-1.9 3.9-3.3 5.4-1.4 1.5-3.1 2.6-5.1 3.5-2 .8-4.3 1.2-6.8 1.2h-11.4zm24.5-17.1c0-2-.3-3.9-.9-5.6-.6-1.7-1.4-3.2-2.5-4.4-1.1-1.2-2.5-2.2-4.1-2.9-1.6-.7-3.4-1-5.5-1h-8.2v28.1h8.2c2.1 0 4-.4 5.6-1.1 1.6-.7 3-1.7 4.1-3 1.1-1.3 1.9-2.8 2.5-4.5.5-1.7.8-3.6.8-5.6zm-172.2 14h3.1v3.5h-3.1z" fill="#0a0c15"/></svg>