<svg width="505" height="59" viewBox="0 0 505 59" xmlns="http://www.w3.org/2000/svg"><title>page-g-wood</title><path d="M0 56.764V0h23.382c2.49 0 4.704.555 6.78 1.527 2.075.971 3.874 2.359 5.257 4.024 1.522 1.666 2.629 3.609 3.46 5.69a17.628 17.628 0 0 1 1.244 6.524c0 2.359-.415 4.58-1.107 6.8-.83 2.22-1.937 4.025-3.32 5.69-1.384 1.666-3.182 3.054-5.12 4.025-1.936.972-4.15 1.527-6.64 1.527H5.534v20.957H0zM5.534 30.81h17.987c1.66 0 3.182-.417 4.565-1.11 1.384-.695 2.49-1.666 3.46-2.915.968-1.25 1.66-2.637 2.213-4.164.553-1.526.83-3.192.83-4.857 0-1.805-.277-3.47-.968-4.997a12.822 12.822 0 0 0-2.49-4.163 11.907 11.907 0 0 0-3.598-2.776c-1.384-.694-2.906-.971-4.428-.971H5.535V30.81zm34.313 26.786L59.493 10.27h3.736l19.785 47.326h-4.981l-6.088-14.85H50.777l-6.088 14.85h-4.842zM61.43 15.683l-9.685 23.316h19.093L61.43 15.683zm65.858 34.974c-4.428 4.858-9.409 7.217-15.081 7.217-3.182 0-6.088-.694-8.855-2.082-2.629-1.388-4.98-3.192-6.918-5.413-1.937-2.22-3.459-4.857-4.566-7.633-1.106-2.914-1.66-5.829-1.66-8.882 0-3.192.554-6.107 1.66-9.021a24.873 24.873 0 0 1 4.566-7.633c1.937-2.221 4.29-3.887 6.918-5.274 2.629-1.25 5.534-1.943 8.716-1.943 2.353 0 4.428.277 6.227.832 1.937.555 3.597 1.25 4.98 2.082 1.522.972 2.767 1.943 3.874 3.331 1.107 1.25 2.076 2.637 2.767 4.164l-3.597 2.359c-1.522-2.915-3.597-5.135-6.087-6.523-2.49-1.388-5.258-2.082-8.44-2.082-2.629 0-4.981.555-7.056 1.666-2.076 1.11-3.874 2.637-5.396 4.44-1.522 1.805-2.629 3.887-3.46 6.385a22.2 22.2 0 0 0-1.244 7.356c0 2.637.415 5.135 1.383 7.633.969 2.36 2.214 4.441 3.736 6.245 1.66 1.805 3.459 3.192 5.672 4.303 2.214 1.11 4.428 1.665 7.057 1.665 2.767 0 5.257-.694 7.748-1.943 2.49-1.249 4.842-3.192 7.056-5.968v-7.91H116.91v-3.609h14.39v23.316h-4.012v-7.078zm48.839 2.776v4.163h-31.683V10.27h31.13v4.164H149.01v17.07h23.105v3.887H149.01v18.042zm68.348-3.47c-5.257 5.69-11.345 8.605-18.124 8.605-3.874 0-7.333-.833-10.515-2.498-3.183-1.666-5.95-3.886-8.302-6.523-2.352-2.776-4.15-5.83-5.534-9.299-1.384-3.47-1.937-6.94-1.937-10.548 0-3.747.692-7.355 1.937-10.825 1.245-3.47 3.044-6.523 5.396-9.16 2.352-2.637 5.12-4.719 8.301-6.384 3.182-1.527 6.641-2.36 10.515-2.36 2.767 0 5.258.278 7.472.972 2.213.555 4.289 1.527 6.087 2.498 1.799 1.11 3.32 2.36 4.704 3.886a19.634 19.634 0 0 1 3.32 4.996l-4.288 2.915c-1.799-3.47-4.29-6.107-7.195-7.772-3.044-1.665-6.364-2.498-10.1-2.498-3.182 0-5.949.694-8.44 1.943-2.49 1.388-4.704 3.053-6.502 5.274-1.799 2.22-3.182 4.718-4.15 7.633-.97 2.914-1.384 5.829-1.384 8.882 0 3.192.553 6.246 1.66 9.16 1.107 2.915 2.629 5.413 4.566 7.495a20.448 20.448 0 0 0 6.78 5.135c2.628 1.249 5.395 1.943 8.439 1.943 3.182 0 6.364-.694 9.27-2.22 2.905-1.527 5.672-3.887 8.44-7.218V34.42h-12.453v-4.302h17.295v27.896h-4.843v-8.05h-.415zm59.217-48.159h5.396l8.024 20.124 8.025-20.124h5.258l-9.824 24.288 10.792 25.675 20.338-50.38h6.088l-23.936 56.765h-4.98l-11.899-28.035-11.899 28.035h-4.842L276.297 1.388h5.95l20.615 50.24 10.791-25.675zm74.85 56.07c-3.32 0-6.226-.694-8.993-2.082-2.767-1.388-5.119-3.192-7.056-5.413-1.937-2.22-3.459-4.857-4.566-7.633-1.106-2.914-1.66-5.829-1.66-8.882 0-3.192.554-6.107 1.66-9.021 1.107-2.915 2.63-5.413 4.705-7.633 1.936-2.221 4.289-4.025 7.056-5.274 2.767-1.25 5.672-1.943 8.716-1.943 3.32 0 6.226.694 8.993 2.081 2.767 1.388 4.981 3.193 6.918 5.552a23.461 23.461 0 0 1 4.427 7.633c1.107 2.915 1.66 5.83 1.66 8.744a24.84 24.84 0 0 1-1.66 9.02c-1.106 2.915-2.628 5.413-4.704 7.634-2.075 2.22-4.289 3.886-7.056 5.274-2.352 1.388-5.396 1.943-8.44 1.943zm-17.57-24.01c0 2.637.414 4.996 1.244 7.494.83 2.36 2.076 4.442 3.598 6.385 1.522 1.804 3.32 3.33 5.534 4.44 2.075 1.111 4.427 1.666 7.056 1.666 2.629 0 5.12-.555 7.195-1.665 2.213-1.11 4.012-2.637 5.534-4.58 1.522-1.804 2.629-4.025 3.459-6.384a21.4 21.4 0 0 0 1.245-7.217c0-2.637-.415-4.997-1.245-7.495a19.914 19.914 0 0 0-3.597-6.245c-1.522-1.804-3.321-3.331-5.535-4.303-2.075-1.11-4.427-1.665-7.056-1.665-2.629 0-5.12.555-7.194 1.665-2.214 1.11-4.013 2.637-5.535 4.442-1.522 1.804-2.628 4.024-3.459 6.384-.83 2.36-1.245 4.719-1.245 7.078zm71.114 24.01c-3.32 0-6.226-.694-8.993-2.082-2.767-1.388-5.119-3.192-7.056-5.413-1.937-2.22-3.459-4.857-4.566-7.633-1.107-2.914-1.66-5.829-1.66-8.882 0-3.192.553-6.107 1.66-9.021 1.107-2.915 2.629-5.413 4.704-7.633 1.937-2.221 4.29-4.025 7.057-5.274 2.767-1.25 5.672-1.943 8.716-1.943 3.32 0 6.226.694 8.993 2.081 2.767 1.388 4.98 3.193 6.918 5.552a23.461 23.461 0 0 1 4.427 7.633c1.107 2.915 1.66 5.83 1.66 8.744a24.84 24.84 0 0 1-1.66 9.02c-1.107 2.915-2.628 5.413-4.704 7.634-2.075 2.22-4.289 3.886-7.056 5.274-2.49 1.388-5.396 1.943-8.44 1.943zm-17.57-24.01c0 2.637.414 4.996 1.244 7.494.83 2.36 2.076 4.442 3.598 6.385 1.521 1.804 3.32 3.33 5.534 4.44 2.075 1.111 4.427 1.666 7.056 1.666 2.629 0 5.12-.555 7.194-1.665 2.214-1.11 4.013-2.637 5.535-4.58 1.522-1.804 2.628-4.025 3.459-6.384a21.4 21.4 0 0 0 1.245-7.217c0-2.637-.415-4.997-1.245-7.495a19.914 19.914 0 0 0-3.598-6.245c-1.522-1.804-3.32-3.331-5.534-4.303-2.075-1.11-4.427-1.665-7.056-1.665-2.629 0-5.12.555-7.195 1.665-2.213 1.11-4.012 2.637-5.534 4.442-1.522 1.804-2.629 4.024-3.459 6.384-.83 2.36-1.245 4.719-1.245 7.078zm51.883 23.732V10.27h15.91c3.736 0 7.057.555 9.962 1.804 2.767 1.25 5.258 2.915 7.056 4.997 1.799 2.082 3.32 4.58 4.151 7.494.83 2.915 1.384 5.968 1.384 9.16 0 3.609-.554 6.8-1.66 9.715-1.107 2.915-2.63 5.413-4.566 7.495-1.937 2.081-4.29 3.608-7.057 4.857-2.767 1.11-5.949 1.666-9.408 1.666H466.4v.138zm33.897-23.732c0-2.776-.415-5.413-1.245-7.772-.83-2.36-1.937-4.441-3.46-6.107-1.521-1.665-3.458-3.053-5.672-4.025-2.214-.971-4.704-1.387-7.61-1.387h-11.345v38.999h11.346c2.905 0 5.534-.556 7.748-1.527 2.213-.972 4.15-2.36 5.672-4.164 1.522-1.804 2.629-3.886 3.459-6.245a27.742 27.742 0 0 0 1.107-7.772zm-238.249 19.43h4.289v4.858h-4.289z" fill="#FFF" fill-rule="evenodd"/></svg>