<svg width="313" height="50" xmlns="http://www.w3.org/2000/svg" xmlns:xlink="http://www.w3.org/1999/xlink"><defs><path id="a" d="M.08.078h18.98v19.121H.08z"/></defs><g fill="none" fill-rule="evenodd"><path d="M304.754 33.4c-4.315.02-7.18-1.568-7.941-4.373-.06-.227.102-.457.348-.514l3.699-.843a.492.492 0 01.556.295c.5 1.25 1.897 1.95 3.915 1.942 1.636-.005 2.652-.556 2.646-1.428-.006-1.176-1.798-1.687-3.879-2.277-3.034-.863-6.81-1.937-6.828-5.682-.021-3.793 3.893-5.506 7.778-5.52 1.937-.008 6.423.423 7.175 4.512.039.216-.127.434-.355.486l-3.476.775a.48.48 0 01-.56-.315c-.43-1.298-1.527-1.951-3.27-1.943-1.198.006-2.475.392-2.47 1.457.007 1.235 1.862 1.769 4.009 2.388 2.976.858 6.68 1.925 6.699 5.466.018 3.314-3.217 5.554-8.046 5.574M280.082 32.958L280 15.5c0-.247.195-.447.435-.447L291.478 15a.441.441 0 01.44.442l.011 2.665a.44.44 0 01-.434.447l-6.623.032a.442.442 0 00-.434.447l.016 3.104a.439.439 0 00.44.44l4.692-.02a.44.44 0 01.438.441l.011 2.499a.438.438 0 01-.434.447l-4.692.023c-.24 0-.435.2-.435.445l.012 2.969a.444.444 0 00.44.445l6.622-.032a.439.439 0 01.438.442L292 32.9a.446.446 0 01-.438.447l-11.043.052a.437.437 0 01-.437-.442M265.261 33.15l-8.415-17.414a.459.459 0 01.423-.656l3.596-.017c.187 0 .354.107.432.27l4.232 9.085a.581.581 0 001.05-.008l4.097-9.12a.471.471 0 01.43-.273l3.621-.017a.46.46 0 01.43.652l-8.304 17.492a.456.456 0 01-.403.253l-.783.003a.45.45 0 01-.406-.25M247.2 32.974V15.45c0-.248.124-.449.387-.449h3.85c.26 0 .56.198.563.446v17.508c0 .248-.21.446-.474.446h-3.85c-.26.003-.476-.181-.476-.426M232.01 24.152v2.957c0 .157.128.284.288.284h3.698c.186 0 .33.18.276.36-.534 1.814-1.863 2.702-4.038 2.702-4.31 0-5.216-3.17-5.216-5.827 0-3.775 1.83-5.854 5.158-5.854 1.328 0 2.35.351 3.017 1 .119.117.301.125.417.006l2.547-2.623a.286.286 0 00-.011-.418C236.814 15.603 234.824 15 232.26 15c-6.266 0-9.86 3.537-9.86 9.709 0 6.033 3.478 9.491 9.547 9.491 3.214 0 8.635-1.113 8.827-8.581l.026-1.461a.287.287 0 00-.284-.293h-8.218c-.16 0-.288.13-.288.287M202.287 32.958l-.222-7.486c-.011-.416-.533-.597-.804-.281l-4.482 5.197a.459.459 0 01-.349.158h-.28a.46.46 0 01-.351-.163l-4.26-5.16c-.268-.327-.799-.147-.81.272l-.242 7.463a.457.457 0 01-.456.442h-3.175a.455.455 0 01-.456-.468l.514-17.49a.458.458 0 01.458-.442h.738c.142 0 .274.066.36.175l7.568 9.657a.46.46 0 00.724 0l7.567-9.657a.466.466 0 01.36-.175h.739c.248 0 .45.195.458.442l.514 17.49a.455.455 0 01-.456.468h-3.198a.458.458 0 01-.459-.442M175.263 26.96l-1.74-3.625a.456.456 0 00-.822.006l-1.668 3.625a.45.45 0 00.414.637h3.408a.45.45 0 00.408-.642m2.944 6.184l-.96-2.014a.452.452 0 00-.412-.255h-7.316a.451.451 0 00-.411.264l-.91 1.996a.452.452 0 01-.413.264h-3.33a.448.448 0 01-.41-.64l8.36-17.502a.45.45 0 01.409-.258h.579c.17 0 .33.1.405.252l8.555 17.506a.446.446 0 01-.405.642h-3.332a.455.455 0 01-.409-.255M154.728 32.948v-6.5c0-.247-.2-.452-.45-.452h-6.954c-.249 0-.45.205-.45.452v6.5c0 .25-.2.452-.449.452h-3.576a.451.451 0 01-.449-.452V15.454c0-.25.203-.454.452-.454h3.573c.25 0 .45.204.45.452v6.5c0 .25.2.449.45.449h6.954c.249 0 .449-.199.449-.449v-6.5c0-.248.2-.452.45-.452h3.575a.45.45 0 01.447.452v17.496c0 .25-.2.452-.447.452h-3.575a.45.45 0 01-.45-.452M126.104 32.951V19.004a.455.455 0 00-.463-.446h-5.177a.457.457 0 01-.464-.449v-2.657c0-.25.208-.452.464-.452h15.872c.256 0 .464.201.464.452v2.657a.457.457 0 01-.464.449h-5.15a.455.455 0 00-.464.446V32.95a.457.457 0 01-.464.449h-3.69a.457.457 0 01-.464-.449" fill="#222"/><g transform="translate(98.4 15)"><mask id="b" fill="#fff"><use xlink:href="#a"/></mask><path d="M9.558 3.7c-3.202 0-4.823 1.952-4.823 5.804 0 3.898 1.69 6.046 4.762 6.046 3.12 0 4.91-2.223 4.91-6.101 0-3.762-1.677-5.748-4.85-5.748m-.116 15.498c-5.862 0-9.36-3.623-9.36-9.695C.08 3.426 3.436.077 9.528.077c6.058 0 9.533 3.395 9.533 9.317 0 6.049-3.687 9.805-9.62 9.805" fill="#231F20" mask="url(#b)"/></g><path d="M85.402 24.152v2.957c0 .157.124.284.28.284h3.619c.181 0 .323.18.272.36-.525 1.814-1.825 2.702-3.953 2.702-4.217 0-5.102-3.17-5.102-5.827 0-3.775 1.79-5.854 5.045-5.854 1.3 0 2.299.351 2.952 1 .116.117.295.125.408.006l2.495-2.623a.293.293 0 00-.015-.418C90.101 15.603 88.154 15 85.646 15 79.516 15 76 18.537 76 24.709c0 6.033 3.402 9.491 9.34 9.491 3.143 0 8.447-1.113 8.634-8.581L94 24.158a.284.284 0 00-.278-.293h-8.04c-.156 0-.28.13-.28.287" fill="#222"/><g fill="#222"><path d="M24.568 49.089c4.613 0 8.928-1.268 12.617-3.47V29.566h2.01V44.28a25.021 25.021 0 002.01-1.659V29.567h2.01V40.55c.729-.846 1.4-1.74 2.01-2.682V27.565H24.326v2.002h10.848v4.983a14.75 14.75 0 01-10.653 4.538c-8.04 0-14.538-6.476-14.538-14.486 0-8.011 6.499-14.554 14.538-14.554 3.563 0 6.856 1.297 9.404 3.45l1.46-1.458A16.549 16.549 0 0024.59 8.046c-9.18 0-16.55 7.41-16.55 16.556S15.41 41.09 24.59 41.09c4.02 0 7.704-1.402 10.586-3.738v2.47a18.73 18.73 0 01-10.586 3.27c-10.25 0-18.56-8.276-18.56-18.491 0-10.214 8.31-18.56 18.56-18.56 4.668 0 8.93 1.722 12.208 4.593l1.438-1.433A20.537 20.537 0 0024.589 4.04c-11.39 0-20.57 9.212-20.57 20.562 0 11.35 9.18 20.494 20.57 20.494 3.886 0 7.503-1.067 10.586-2.87v2.27c-3.217 1.67-6.767 2.605-10.586 2.605-12.53 0-22.58-10.016-22.58-22.5A22.52 22.52 0 0124.59 2.039 22.768 22.768 0 0139.675 7.77l1.404-1.401C36.7 2.455 30.929.035 24.589.035 10.988.035 0 11.05 0 24.602c0 2.328.326 4.581.931 6.713C3.86 41.575 13.333 49.09 24.568 49.09"/><path d="M24.43 25.371h20.989v-1.97h-20.99zM24.43 21.593h20.989v-1.97h-20.99z"/></g></g></svg>
