<?xml version="1.0" encoding="UTF-8" standalone="no"?>
<svg width="505px" height="59px" viewBox="0 0 505 59" version="1.1" xmlns="http://www.w3.org/2000/svg" xmlns:xlink="http://www.w3.org/1999/xlink">
    <!-- Generator: Sketch 41.2 (35397) - http://www.bohemiancoding.com/sketch -->
    <title>page-g-wood</title>
    <desc>Created with Sketch.</desc>
    <defs></defs>
    <g id="Home" stroke="none" stroke-width="1" fill="none" fill-rule="evenodd">
        <g id="Desktop" transform="translate(-122.000000, -59.000000)" fill="#FFFFFF">
            <g id="Intro">
                <g id="page-g-wood" transform="translate(122.000000, 59.000000)">
                    <g id="Layer_1">
                        <path d="M0,56.7636461 L0,0 L23.3821918,0 C25.8726027,0 28.0863014,0.555145683 30.1616438,1.52665063 C32.2369863,2.49815557 34.0356164,3.88601978 35.4191781,5.55145683 C36.9410959,7.21689388 38.0479452,9.15990377 38.8780822,11.2417001 C39.7082192,13.3234964 40.1232877,15.5440791 40.1232877,17.7646619 C40.1232877,20.124031 39.7082192,22.3446137 39.0164384,24.5651965 C38.1863014,26.7857792 37.0794521,28.5900027 35.6958904,30.2554397 C34.3123288,31.9208768 32.5136986,33.308741 30.5767123,34.2802459 C28.639726,35.2517509 26.4260274,35.8068966 23.9356164,35.8068966 L5.53424658,35.8068966 L5.53424658,56.7636461 L0,56.7636461 L0,56.7636461 Z M5.53424658,30.8105854 L23.5205479,30.8105854 C25.1808219,30.8105854 26.7027397,30.3942261 28.0863014,29.700294 C29.469863,29.0063619 30.5767123,28.034857 31.5452055,26.7857792 C32.5136986,25.5367014 33.2054795,24.1488372 33.7589041,22.6221866 C34.3123288,21.095536 34.5890411,19.4300989 34.5890411,17.7646619 C34.5890411,15.9604384 34.3123288,14.2950013 33.6205479,12.7683507 C33.0671233,11.2417001 32.2369863,9.85383587 31.130137,8.60475809 C30.1616438,7.49446672 28.9164384,6.52296177 27.5328767,5.82902967 C26.1493151,5.13509757 24.6273973,4.85752473 23.1054795,4.85752473 L5.53424658,4.85752473 L5.53424658,30.8105854 L5.53424658,30.8105854 Z" id="Shape"></path>
                        <path d="M39.8465753,57.5963646 L59.4931507,10.2701951 L63.2287671,10.2701951 L83.0136986,57.5963646 L78.0328767,57.5963646 L71.9452055,42.7462176 L50.7767123,42.7462176 L44.6890411,57.5963646 L39.8465753,57.5963646 L39.8465753,57.5963646 Z M61.430137,15.6828655 L51.7452055,38.9989842 L70.8383562,38.9989842 L61.430137,15.6828655 L61.430137,15.6828655 Z" id="Shape"></path>
                        <path d="M127.287671,50.6570436 C122.860274,55.5145683 117.879452,57.8739374 112.206849,57.8739374 C109.024658,57.8739374 106.119178,57.1800053 103.352055,55.7921411 C100.723288,54.4042769 98.3712329,52.6000535 96.4342466,50.3794707 C94.4972603,48.158888 92.9753425,45.521946 91.8684932,42.7462176 C90.7616438,39.8317028 90.2082192,36.9171879 90.2082192,33.8638867 C90.2082192,30.671799 90.7616438,27.7572841 91.8684932,24.8427693 C92.9753425,21.9282545 94.4972603,19.4300989 96.4342466,17.2095162 C98.3712329,14.9889334 100.723288,13.3234964 103.352055,11.9356322 C105.980822,10.6865544 108.886301,9.99262229 112.068493,9.99262229 C114.420548,9.99262229 116.49589,10.2701951 118.294521,10.8253408 C120.231507,11.3804865 121.891781,12.0744186 123.275342,12.9071371 C124.79726,13.8786421 126.042466,14.850147 127.149315,16.2380112 C128.256164,17.487089 129.224658,18.8749532 129.916438,20.4016038 L126.319178,22.760973 C124.79726,19.8464582 122.721918,17.6258754 120.231507,16.2380112 C117.741096,14.850147 114.973973,14.1562149 111.791781,14.1562149 C109.163014,14.1562149 106.810959,14.7113606 104.735616,15.821652 C102.660274,16.9319433 100.861644,18.458594 99.339726,20.2628174 C97.8178082,22.0670409 96.7109589,24.1488372 95.8808219,26.6469928 C95.0506849,29.0063619 94.6356164,31.5045175 94.6356164,34.0026731 C94.6356164,36.6396151 95.0506849,39.1377706 96.0191781,41.6359262 C96.9876712,43.9952954 98.2328767,46.0770917 99.7547945,47.8813152 C101.415068,49.6855386 103.213699,51.0734028 105.427397,52.1836942 C107.641096,53.2939856 109.854795,53.8491312 112.483562,53.8491312 C115.250685,53.8491312 117.741096,53.1551991 120.231507,51.9061214 C122.721918,50.6570436 125.073973,48.7140337 127.287671,45.9383053 L127.287671,38.0274793 L116.910959,38.0274793 L116.910959,34.4190323 L131.3,34.4190323 L131.3,57.735151 L127.287671,57.735151 L127.287671,50.6570436 L127.287671,50.6570436 Z" id="Shape"></path>
                        <polygon id="Shape" points="176.127397 53.432772 176.127397 57.5963646 144.443836 57.5963646 144.443836 10.2701951 175.573973 10.2701951 175.573973 14.4337878 149.009589 14.4337878 149.009589 31.5045175 172.115068 31.5045175 172.115068 35.3905373 149.009589 35.3905373 149.009589 53.432772"></polygon>
                        <path d="M244.475342,49.9631115 C239.217808,55.6533547 233.130137,58.5678696 226.350685,58.5678696 C222.476712,58.5678696 219.017808,57.735151 215.835616,56.069714 C212.653425,54.4042769 209.886301,52.1836942 207.534247,49.5467522 C205.182192,46.7710238 203.383562,43.7177225 202,40.248062 C200.616438,36.7784015 200.063014,33.308741 200.063014,29.700294 C200.063014,25.9530607 200.754795,22.3446137 202,18.8749532 C203.245205,15.4052927 205.043836,12.3519914 207.39589,9.71504945 C209.747945,7.07810746 212.515068,4.99631115 215.69726,3.3308741 C218.879452,1.80422347 222.338356,0.971504945 226.212329,0.971504945 C228.979452,0.971504945 231.469863,1.24907779 233.683562,1.94300989 C235.89726,2.49815557 237.972603,3.46966052 239.771233,4.44116546 C241.569863,5.55145683 243.091781,6.80053462 244.475342,8.32718524 C245.858904,9.85383587 246.965753,11.5192729 247.79589,13.3234964 L243.506849,16.2380112 C241.708219,12.7683507 239.217808,10.1314087 236.312329,8.46597167 C233.268493,6.80053462 229.947945,5.96781609 226.212329,5.96781609 C223.030137,5.96781609 220.263014,6.6617482 217.772603,7.91082598 C215.282192,9.29869019 213.068493,10.9641272 211.269863,13.18471 C209.471233,15.4052927 208.087671,17.9034483 207.119178,20.8179631 C206.150685,23.7324779 205.735616,26.6469928 205.735616,29.700294 C205.735616,32.8923817 206.289041,35.945683 207.39589,38.8601978 C208.50274,41.7747126 210.024658,44.2728682 211.961644,46.3546645 C213.89863,48.5752473 216.112329,50.2406843 218.741096,51.4897621 C221.369863,52.7388399 224.136986,53.432772 227.180822,53.432772 C230.363014,53.432772 233.545205,52.7388399 236.450685,51.2121893 C239.356164,49.6855386 242.123288,47.3261695 244.890411,43.9952954 L244.890411,34.4190323 L232.438356,34.4190323 L232.438356,30.1166533 L249.732877,30.1166533 L249.732877,58.0127239 L244.890411,58.0127239 L244.890411,49.9631115 L244.475342,49.9631115 Z" id="Shape"></path>
                        <polygon id="Shape" points="303.691781 1.80422347 309.087671 1.80422347 317.112329 21.9282545 325.136986 1.80422347 330.394521 1.80422347 320.571233 26.0918471 331.363014 51.7673349 351.70137 1.38786421 357.789041 1.38786421 333.853425 58.1515103 328.872603 58.1515103 316.973973 30.1166533 305.075342 58.1515103 300.232877 58.1515103 276.29726 1.38786421 282.246575 1.38786421 302.861644 51.6285485 313.653425 25.9530607"></polygon>
                        <path d="M378.542466,57.8739374 C375.221918,57.8739374 372.316438,57.1800053 369.549315,55.7921411 C366.782192,54.4042769 364.430137,52.6000535 362.493151,50.3794707 C360.556164,48.158888 359.034247,45.521946 357.927397,42.7462176 C356.820548,39.8317028 356.267123,36.9171879 356.267123,33.8638867 C356.267123,30.671799 356.820548,27.7572841 357.927397,24.8427693 C359.034247,21.9282545 360.556164,19.4300989 362.631507,17.2095162 C364.568493,14.9889334 366.920548,13.18471 369.687671,11.9356322 C372.454795,10.6865544 375.360274,9.99262229 378.40411,9.99262229 C381.724658,9.99262229 384.630137,10.6865544 387.39726,12.0744186 C390.164384,13.4622828 392.378082,15.2665063 394.315068,17.6258754 C396.252055,19.8464582 397.773973,22.4834002 398.742466,25.2591286 C399.849315,28.1736434 400.40274,31.0881582 400.40274,34.0026731 C400.40274,37.1947608 399.849315,40.1092756 398.742466,43.0237904 C397.635616,45.9383053 396.113699,48.4364608 394.038356,50.6570436 C391.963014,52.8776263 389.749315,54.5430634 386.982192,55.9309276 C384.630137,57.3187918 381.586301,57.8739374 378.542466,57.8739374 L378.542466,57.8739374 Z M360.971233,33.8638867 C360.971233,36.5008287 361.386301,38.8601978 362.216438,41.3583534 C363.046575,43.7177225 364.291781,45.7995188 365.813699,47.7425287 C367.335616,49.5467522 369.134247,51.0734028 371.347945,52.1836942 C373.423288,53.2939856 375.775342,53.8491312 378.40411,53.8491312 C381.032877,53.8491312 383.523288,53.2939856 385.59863,52.1836942 C387.812329,51.0734028 389.610959,49.5467522 391.132877,47.6037423 C392.654795,45.7995188 393.761644,43.5789361 394.591781,41.219567 C395.421918,38.8601978 395.836986,36.5008287 395.836986,34.0026731 C395.836986,31.3657311 395.421918,29.0063619 394.591781,26.5082064 C393.761644,24.1488372 392.516438,22.0670409 390.994521,20.2628174 C389.472603,18.458594 387.673973,16.9319433 385.460274,15.9604384 C383.384932,14.850147 381.032877,14.2950013 378.40411,14.2950013 C375.775342,14.2950013 373.284932,14.850147 371.209589,15.9604384 C368.99589,17.0707298 367.19726,18.5973804 365.675342,20.4016038 C364.153425,22.2058273 363.046575,24.4264101 362.216438,26.7857792 C361.386301,29.1451484 360.971233,31.5045175 360.971233,33.8638867 L360.971233,33.8638867 Z" id="Shape"></path>
                        <path d="M432.086301,57.8739374 C428.765753,57.8739374 425.860274,57.1800053 423.093151,55.7921411 C420.326027,54.4042769 417.973973,52.6000535 416.036986,50.3794707 C414.1,48.158888 412.578082,45.521946 411.471233,42.7462176 C410.364384,39.8317028 409.810959,36.9171879 409.810959,33.8638867 C409.810959,30.671799 410.364384,27.7572841 411.471233,24.8427693 C412.578082,21.9282545 414.1,19.4300989 416.175342,17.2095162 C418.112329,14.9889334 420.464384,13.18471 423.231507,11.9356322 C425.99863,10.6865544 428.90411,9.99262229 431.947945,9.99262229 C435.268493,9.99262229 438.173973,10.6865544 440.941096,12.0744186 C443.708219,13.4622828 445.921918,15.2665063 447.858904,17.6258754 C449.79589,19.8464582 451.317808,22.4834002 452.286301,25.2591286 C453.393151,28.1736434 453.946575,31.0881582 453.946575,34.0026731 C453.946575,37.1947608 453.393151,40.1092756 452.286301,43.0237904 C451.179452,45.9383053 449.657534,48.4364608 447.582192,50.6570436 C445.506849,52.8776263 443.293151,54.5430634 440.526027,55.9309276 C438.035616,57.3187918 435.130137,57.8739374 432.086301,57.8739374 L432.086301,57.8739374 Z M414.515068,33.8638867 C414.515068,36.5008287 414.930137,38.8601978 415.760274,41.3583534 C416.590411,43.7177225 417.835616,45.7995188 419.357534,47.7425287 C420.879452,49.5467522 422.678082,51.0734028 424.891781,52.1836942 C426.967123,53.2939856 429.319178,53.8491312 431.947945,53.8491312 C434.576712,53.8491312 437.067123,53.2939856 439.142466,52.1836942 C441.356164,51.0734028 443.154795,49.5467522 444.676712,47.6037423 C446.19863,45.7995188 447.305479,43.5789361 448.135616,41.219567 C448.965753,38.8601978 449.380822,36.5008287 449.380822,34.0026731 C449.380822,31.3657311 448.965753,29.0063619 448.135616,26.5082064 C447.305479,24.1488372 446.060274,22.0670409 444.538356,20.2628174 C443.016438,18.458594 441.217808,16.9319433 439.00411,15.9604384 C436.928767,14.850147 434.576712,14.2950013 431.947945,14.2950013 C429.319178,14.2950013 426.828767,14.850147 424.753425,15.9604384 C422.539726,17.0707298 420.741096,18.5973804 419.219178,20.4016038 C417.69726,22.2058273 416.590411,24.4264101 415.760274,26.7857792 C414.930137,29.1451484 414.515068,31.5045175 414.515068,33.8638867 L414.515068,33.8638867 Z" id="Shape"></path>
                        <path d="M466.39863,57.5963646 L466.39863,10.2701951 L482.309589,10.2701951 C486.045205,10.2701951 489.365753,10.8253408 492.271233,12.0744186 C495.038356,13.3234964 497.528767,14.9889334 499.327397,17.0707298 C501.126027,19.1525261 502.647945,21.6506816 503.478082,24.5651965 C504.308219,27.4797113 504.861644,30.5330126 504.861644,33.7251002 C504.861644,37.3335472 504.308219,40.5256349 503.20137,43.4401497 C502.094521,46.3546645 500.572603,48.8528201 498.635616,50.9346164 C496.69863,53.0164127 494.346575,54.5430634 491.579452,55.7921411 C488.812329,56.9024325 485.630137,57.4575782 482.171233,57.4575782 L466.39863,57.4575782 L466.39863,57.5963646 Z M500.29589,33.8638867 C500.29589,31.0881582 499.880822,28.4512163 499.050685,26.0918471 C498.220548,23.7324779 497.113699,21.6506816 495.591781,19.9852446 C494.069863,18.3198075 492.132877,16.9319433 489.919178,15.9604384 C487.705479,14.9889334 485.215068,14.5725742 482.309589,14.5725742 L470.964384,14.5725742 L470.964384,53.5715584 L482.309589,53.5715584 C485.215068,53.5715584 487.843836,53.0164127 490.057534,52.0449078 C492.271233,51.0734028 494.208219,49.6855386 495.730137,47.8813152 C497.252055,46.0770917 498.358904,43.9952954 499.189041,41.6359262 C499.880822,39.2765571 500.29589,36.6396151 500.29589,33.8638867 L500.29589,33.8638867 Z" id="Shape"></path>
                        <rect id="Rectangle-path" x="262.046575" y="53.2939856" width="4.2890411" height="4.85752473"></rect>
                    </g>
                </g>
            </g>
        </g>
    </g>
</svg>