<?xml version="1.0" encoding="utf-8"?>
<!-- Generator: Adobe Illustrator 19.2.1, SVG Export Plug-In . SVG Version: 6.00 Build 0)  -->
<svg version="1.1" id="Layer_1" xmlns="http://www.w3.org/2000/svg" xmlns:xlink="http://www.w3.org/1999/xlink" x="0px" y="0px"
	 viewBox="0 0 365 42.2" style="enable-background:new 0 0 365 42.2;" xml:space="preserve">
<style type="text/css">
	.st0{fill:#0A0C15;}
</style>
<path class="st0" d="M0,40.9V0h16.9c1.8,0,3.4,0.4,4.9,1.1c1.5,0.7,2.8,1.7,3.8,2.9c1.1,1.2,1.9,2.6,2.5,4.1
	c0.6,1.5,0.9,3.1,0.9,4.7c0,1.7-0.3,3.3-0.8,4.9c-0.6,1.6-1.4,2.9-2.4,4.1c-1,1.2-2.3,2.2-3.7,2.9s-3,1.1-4.8,1.1H4v15.1H0z M4,22.2
	H17c1.2,0,2.3-0.3,3.3-0.8c1-0.5,1.8-1.2,2.5-2.1c0.7-0.9,1.2-1.9,1.6-3c0.4-1.1,0.6-2.3,0.6-3.5c0-1.3-0.2-2.5-0.7-3.6
	c-0.4-1.1-1-2.1-1.8-3c-0.7-0.8-1.6-1.5-2.6-2c-1-0.5-2.1-0.7-3.2-0.7H4V22.2z"/>
<path class="st0" d="M28.8,41.5L43,7.4h2.7L60,41.5h-3.6L52,30.8H36.7l-4.4,10.7H28.8z M44.4,11.3l-7,16.8h13.8L44.4,11.3z"/>
<path class="st0" d="M92,36.5c-3.2,3.5-6.8,5.2-10.9,5.2c-2.3,0-4.4-0.5-6.4-1.5c-1.9-1-3.6-2.3-5-3.9c-1.4-1.6-2.5-3.5-3.3-5.5
	c-0.8-2.1-1.2-4.2-1.2-6.4c0-2.3,0.4-4.4,1.2-6.5c0.8-2.1,1.9-3.9,3.3-5.5s3.1-2.8,5-3.8c1.9-0.9,4-1.4,6.3-1.4
	c1.7,0,3.2,0.2,4.5,0.6c1.4,0.4,2.6,0.9,3.6,1.5c1.1,0.7,2,1.4,2.8,2.4c0.8,0.9,1.5,1.9,2,3l-2.6,1.7c-1.1-2.1-2.6-3.7-4.4-4.7
	c-1.8-1-3.8-1.5-6.1-1.5c-1.9,0-3.6,0.4-5.1,1.2c-1.5,0.8-2.8,1.9-3.9,3.2c-1.1,1.3-1.9,2.8-2.5,4.6c-0.6,1.7-0.9,3.5-0.9,5.3
	c0,1.9,0.3,3.7,1,5.5c0.7,1.7,1.6,3.2,2.7,4.5c1.2,1.3,2.5,2.3,4.1,3.1c1.6,0.8,3.2,1.2,5.1,1.2c2,0,3.8-0.5,5.6-1.4
	c1.8-0.9,3.5-2.3,5.1-4.3v-5.7h-7.5v-2.6h10.4v16.8H92V36.5z"/>
<path class="st0" d="M127.3,38.5v3h-22.9V7.4h22.5v3h-19.2v12.3h16.7v2.8h-16.7v13H127.3z"/>
<path class="st0" d="M176.7,36c-3.8,4.1-8.2,6.2-13.1,6.2c-2.8,0-5.3-0.6-7.6-1.8c-2.3-1.2-4.3-2.8-6-4.7c-1.7-2-3-4.2-4-6.7
	c-1-2.5-1.4-5-1.4-7.6c0-2.7,0.5-5.3,1.4-7.8c0.9-2.5,2.2-4.7,3.9-6.6s3.7-3.4,6-4.6c2.3-1.1,4.8-1.7,7.6-1.7c2,0,3.8,0.2,5.4,0.7
	c1.6,0.4,3.1,1.1,4.4,1.8c1.3,0.8,2.4,1.7,3.4,2.8c1,1.1,1.8,2.3,2.4,3.6l-3.1,2.1c-1.3-2.5-3.1-4.4-5.2-5.6
	c-2.2-1.2-4.6-1.8-7.3-1.8c-2.3,0-4.3,0.5-6.1,1.4c-1.8,1-3.4,2.2-4.7,3.8c-1.3,1.6-2.3,3.4-3,5.5c-0.7,2.1-1,4.2-1,6.4
	c0,2.3,0.4,4.5,1.2,6.6c0.8,2.1,1.9,3.9,3.3,5.4c1.4,1.6,3,2.8,4.9,3.7c1.9,0.9,3.9,1.4,6.1,1.4c2.3,0,4.6-0.5,6.7-1.6
	c2.1-1.1,4.1-2.8,6.1-5.2v-6.9h-9v-3.1h12.5v20.1h-3.5V36z"/>
<path class="st0" d="M219.5,1.3h3.9l5.8,14.5l5.8-14.5h3.8l-7.1,17.5l7.8,18.5L254.2,1h4.4l-17.3,40.9h-3.6l-8.6-20.2l-8.6,20.2H217
	L199.7,1h4.3l14.9,36.2l7.8-18.5L219.5,1.3z"/>
<path class="st0" d="M273.6,41.7c-2.4,0-4.5-0.5-6.5-1.5c-2-1-3.7-2.3-5.1-3.9c-1.4-1.6-2.5-3.5-3.3-5.5c-0.8-2.1-1.2-4.2-1.2-6.4
	c0-2.3,0.4-4.4,1.2-6.5c0.8-2.1,1.9-3.9,3.4-5.5c1.4-1.6,3.1-2.9,5.1-3.8c2-0.9,4.1-1.4,6.3-1.4c2.4,0,4.5,0.5,6.5,1.5
	c2,1,3.6,2.3,5,4c1.4,1.6,2.5,3.5,3.2,5.5c0.8,2.1,1.2,4.2,1.2,6.3c0,2.3-0.4,4.4-1.2,6.5c-0.8,2.1-1.9,3.9-3.4,5.5
	s-3.1,2.8-5.1,3.8C278,41.3,275.8,41.7,273.6,41.7z M260.9,24.4c0,1.9,0.3,3.6,0.9,5.4c0.6,1.7,1.5,3.2,2.6,4.6
	c1.1,1.3,2.4,2.4,4,3.2c1.5,0.8,3.2,1.2,5.1,1.2c1.9,0,3.7-0.4,5.2-1.2c1.6-0.8,2.9-1.9,4-3.3c1.1-1.3,1.9-2.9,2.5-4.6
	c0.6-1.7,0.9-3.4,0.9-5.2c0-1.9-0.3-3.6-0.9-5.4c-0.6-1.7-1.5-3.2-2.6-4.5c-1.1-1.3-2.4-2.4-4-3.1c-1.5-0.8-3.2-1.2-5.1-1.2
	c-1.9,0-3.7,0.4-5.2,1.2c-1.6,0.8-2.9,1.9-4,3.2c-1.1,1.3-1.9,2.9-2.5,4.6C261.2,21,260.9,22.7,260.9,24.4z"/>
<path class="st0" d="M312.3,41.7c-2.4,0-4.5-0.5-6.5-1.5c-2-1-3.7-2.3-5.1-3.9c-1.4-1.6-2.5-3.5-3.3-5.5c-0.8-2.1-1.2-4.2-1.2-6.4
	c0-2.3,0.4-4.4,1.2-6.5c0.8-2.1,1.9-3.9,3.4-5.5c1.4-1.6,3.1-2.9,5.1-3.8c2-0.9,4.1-1.4,6.3-1.4c2.4,0,4.5,0.5,6.5,1.5
	c2,1,3.6,2.3,5,4c1.4,1.6,2.5,3.5,3.2,5.5c0.8,2.1,1.2,4.2,1.2,6.3c0,2.3-0.4,4.4-1.2,6.5c-0.8,2.1-1.9,3.9-3.4,5.5
	s-3.1,2.8-5.1,3.8C316.6,41.3,314.5,41.7,312.3,41.7z M299.6,24.4c0,1.9,0.3,3.6,0.9,5.4c0.6,1.7,1.5,3.2,2.6,4.6
	c1.1,1.3,2.4,2.4,4,3.2c1.5,0.8,3.2,1.2,5.1,1.2c1.9,0,3.7-0.4,5.2-1.2c1.6-0.8,2.9-1.9,4-3.3c1.1-1.3,1.9-2.9,2.5-4.6
	c0.6-1.7,0.9-3.4,0.9-5.2c0-1.9-0.3-3.6-0.9-5.4c-0.6-1.7-1.5-3.2-2.6-4.5c-1.1-1.3-2.4-2.4-4-3.1c-1.5-0.8-3.2-1.2-5.1-1.2
	c-1.9,0-3.7,0.4-5.2,1.2c-1.6,0.8-2.9,1.9-4,3.2c-1.1,1.3-1.9,2.9-2.5,4.6C299.9,21,299.6,22.7,299.6,24.4z"/>
<path class="st0" d="M337.1,41.5V7.4h11.5c2.7,0,5.1,0.4,7.2,1.3c2,0.9,3.8,2.1,5.1,3.6s2.4,3.3,3,5.4s1,4.3,1,6.6
	c0,2.6-0.4,4.9-1.2,7c-0.8,2.1-1.9,3.9-3.3,5.4c-1.4,1.5-3.1,2.6-5.1,3.5c-2,0.8-4.3,1.2-6.8,1.2H337.1z M361.6,24.4
	c0-2-0.3-3.9-0.9-5.6c-0.6-1.7-1.4-3.2-2.5-4.4c-1.1-1.2-2.5-2.2-4.1-2.9c-1.6-0.7-3.4-1-5.5-1h-8.2v28.1h8.2c2.1,0,4-0.4,5.6-1.1
	c1.6-0.7,3-1.7,4.1-3c1.1-1.3,1.9-2.8,2.5-4.5C361.3,28.3,361.6,26.4,361.6,24.4z"/>
<rect x="189.4" y="38.4" class="st0" width="3.1" height="3.5"/>
</svg>
